<?xml version="1.0" encoding="UTF-8"?>
<svg width="20px" height="24px" viewBox="0 0 20 24" version="1.1" xmlns="http://www.w3.org/2000/svg" xmlns:xlink="http://www.w3.org/1999/xlink">
    <!-- Generator: Sketch 45.2 (43514) - http://www.bohemiancoding.com/sketch -->
    <title>course_hover</title>
    <desc>Created with Sketch.</desc>
    <defs>
        <linearGradient x1="50%" y1="0%" x2="50%" y2="98.3816964%" id="linearGradient-1">
            <stop stop-color="#FF74B9" offset="0%"></stop>
            <stop stop-color="#CC6CFF" offset="100%"></stop>
        </linearGradient>
    </defs>
    <g id="Symbols" stroke="none" stroke-width="1" fill="none" fill-rule="evenodd">
        <g id="tab_course_hover">
            <g id="course_hover">
                <path d="M10,0 C4.477,0 0,4.507 0,10.067 L0,10.067 C0,10.135 0.009,10.201 0.01,10.27 L0.01,10.27 C0.008,10.336 0,10.402 0,10.469 L0,10.469 L0,18.201 C0,21.391 2.592,24 5.76,24 L5.76,24 L14.24,24 C17.408,24 20,21.391 20,18.201 L20,18.201 L20,10.469 C20,10.402 19.993,10.336 19.99,10.27 L19.99,10.27 C19.992,10.201 20,10.135 20,10.067 L20,10.067 C20,4.507 15.522,0 10,0 Z" id="Fill-1-Copy" fill="url(#linearGradient-1)"></path>
                <path d="M1.50029158,9.38696315 C1.46229158,9.38696315 1.42429158,9.38296315 1.38629158,9.37396315 C1.11729158,9.31096315 0.950291582,9.04196315 1.01329158,8.77296315 C1.66829158,5.96996315 3.46729158,3.52696315 5.94929158,2.06896315 C6.18729158,1.92896315 6.49429158,2.00896315 6.63429158,2.24696315 C6.77329158,2.48496315 6.69429158,2.79196315 6.45629158,2.93096315 C4.20929158,4.25096315 2.58029158,6.46296315 1.98629158,9.00096315 C1.93329158,9.23096315 1.72729158,9.38696315 1.50029158,9.38696315" id="Fill-4-Copy" fill="#FFFFFF"></path>
                <path d="M14.4499158,11.5365177 L8.64942785,8.15070841 C7.91708189,7.72261758 7,8.25745313 7,9.11363479 L7,15.8863652 C7,16.7425469 7.91708189,17.2773824 8.64942785,16.8492916 L14.4499158,13.4623704 C15.1833614,13.0342796 15.1833614,11.9646085 14.4499158,11.5365177" id="Combined-Shape" fill="#FFFFFF"></path>
            </g>
        </g>
    </g>
</svg>