<?xml version="1.0" encoding="UTF-8"?>
<svg width="20px" height="24px" viewBox="0 0 20 24" version="1.1" xmlns="http://www.w3.org/2000/svg" xmlns:xlink="http://www.w3.org/1999/xlink">
    <!-- Generator: Sketch 45.2 (43514) - http://www.bohemiancoding.com/sketch -->
    <title>tab_home_normal copy 2</title>
    <desc>Created with Sketch.</desc>
    <defs>
        <linearGradient x1="50%" y1="-1.92554306e-14%" x2="50%" y2="98.3816964%" id="linearGradient-1">
            <stop stop-color="#D8D8D8" offset="0%"></stop>
            <stop stop-color="#C2C2C2" offset="100%"></stop>
        </linearGradient>
    </defs>
    <g id="Symbols" stroke="none" stroke-width="1" fill="none" fill-rule="evenodd">
        <g id="tab_home_hover" fill="url(#linearGradient-1)">
            <g id="tab_home_normal-copy-2">
                <g id="icon背景hui">
                    <path d="M10,0 C15.522,0 20,4.507 20,10.067 C20,10.135 19.992,10.201 19.99,10.27 C19.993,10.336 20,10.402 20,10.469 L20,18.201 C20,21.391 17.408,24 14.24,24 L5.76,24 C2.592,24 0,21.391 0,18.201 L0,10.469 C0,10.402 0.008,10.336 0.01,10.27 C0.009,10.201 0,10.135 0,10.067 C0,4.507 4.477,0 10,0 Z M1.50029158,9.38696315 C1.72729158,9.38696315 1.93329158,9.23096315 1.98629158,9.00096315 C2.58029158,6.46296315 4.20929158,4.25096315 6.45629158,2.93096315 C6.69429158,2.79196315 6.77329158,2.48496315 6.63429158,2.24696315 C6.49429158,2.00896315 6.18729158,1.92896315 5.94929158,2.06896315 C3.46729158,3.52696315 1.66829158,5.96996315 1.01329158,8.77296315 C0.950291582,9.04196315 1.11729158,9.31096315 1.38629158,9.37396315 C1.42429158,9.38296315 1.46229158,9.38696315 1.50029158,9.38696315 Z M12.3,11.7472 L12.3,8.8468 C12.3,7.8304 11.49,7 10.5,7 C9.51,7 8.7,7.8304 8.7,8.8468 L8.7,11.7472 C7.15425,12.1612 6,13.5976 6,15.3076 C6,17.338 7.62,19 9.6,19 L11.4,19 C13.38,19 15,17.338 15,15.3076 C15,13.5976 13.84575,12.1612 12.3,11.7472 Z" id="Combined-Shape"></path>
                </g>
            </g>
        </g>
    </g>
</svg>