<?xml version="1.0" encoding="UTF-8"?>
<svg width="20px" height="24px" viewBox="0 0 20 24" version="1.1" xmlns="http://www.w3.org/2000/svg" xmlns:xlink="http://www.w3.org/1999/xlink">
    <!-- Generator: Sketch 45.2 (43514) - http://www.bohemiancoding.com/sketch -->
    <title>tab_message_normal </title>
    <desc>Created with Sketch.</desc>
    <defs>
        <linearGradient x1="50%" y1="-1.92554306e-14%" x2="50%" y2="98.3816964%" id="linearGradient-1">
            <stop stop-color="#D8D8D8" offset="0%"></stop>
            <stop stop-color="#C2C2C2" offset="100%"></stop>
        </linearGradient>
    </defs>
    <g id="Symbols" stroke="none" stroke-width="1" fill="none" fill-rule="evenodd">
        <g id="tab_message_normal" fill="url(#linearGradient-1)">
            <g id="tab_message_normal-">
                <g id="icon背景hui">
                    <path d="M10,0 C15.522,0 20,4.507 20,10.067 C20,10.135 19.992,10.201 19.99,10.27 C19.993,10.336 20,10.402 20,10.469 L20,18.201 C20,21.391 17.408,24 14.24,24 L5.76,24 C2.592,24 0,21.391 0,18.201 L0,10.469 C0,10.402 0.008,10.336 0.01,10.27 C0.009,10.201 0,10.135 0,10.067 C0,4.507 4.477,0 10,0 Z M1.50029158,9.38696315 C1.72729158,9.38696315 1.93329158,9.23096315 1.98629158,9.00096315 C2.58029158,6.46296315 4.20929158,4.25096315 6.45629158,2.93096315 C6.69429158,2.79196315 6.77329158,2.48496315 6.63429158,2.24696315 C6.49429158,2.00896315 6.18729158,1.92896315 5.94929158,2.06896315 C3.46729158,3.52696315 1.66829158,5.96996315 1.01329158,8.77296315 C0.950291582,9.04196315 1.11729158,9.31096315 1.38629158,9.37396315 C1.42429158,9.38296315 1.46229158,9.38696315 1.50029158,9.38696315 Z M14.1955162,15.4727656 C15.323617,14.635579 16.0380299,13.4567411 16.0380299,12.1395487 C16.0380299,9.60540028 13.430728,7.5512577 10.2143434,7.5512577 C6.9994852,7.5512577 4.39218333,9.60540028 4.39218333,12.1395487 C4.39218333,14.6736971 6.9994852,16.7278397 10.2143434,16.7278397 C11.0462986,16.7278397 11.8324581,16.5866615 12.546871,16.3395997 C12.9834567,17.0341963 13.7787754,17.5170257 14.7114811,17.5494967 C15.3434618,17.5720852 15.9250672,17.3758475 16.3921833,17.0483141 C15.3724657,16.9494894 14.5313514,16.3212465 14.1955162,15.4727656 Z" id="Combined-Shape"></path>
                </g>
            </g>
        </g>
    </g>
</svg>