<?xml version="1.0" encoding="UTF-8"?>
<svg width="20px" height="24px" viewBox="0 0 20 24" version="1.1" xmlns="http://www.w3.org/2000/svg" xmlns:xlink="http://www.w3.org/1999/xlink">
    <!-- Generator: Sketch 45.2 (43514) - http://www.bohemiancoding.com/sketch -->
    <title>tab_message_hover </title>
    <desc>Created with Sketch.</desc>
    <defs>
        <linearGradient x1="50%" y1="0%" x2="50%" y2="98.3816964%" id="linearGradient-1">
            <stop stop-color="#FF74B9" offset="0%"></stop>
            <stop stop-color="#CC6CFF" offset="100%"></stop>
        </linearGradient>
    </defs>
    <g id="Symbols" stroke="none" stroke-width="1" fill="none" fill-rule="evenodd">
        <g id="消息" transform="translate(-1.000000, 0.000000)">
            <g id="tab_message_hover-" transform="translate(1.000000, 0.000000)">
                <path d="M10,0 C4.477,0 0,4.507 0,10.067 L0,10.067 C0,10.135 0.009,10.201 0.01,10.27 L0.01,10.27 C0.008,10.336 0,10.402 0,10.469 L0,10.469 L0,18.201 C0,21.391 2.592,24 5.76,24 L5.76,24 L14.24,24 C17.408,24 20,21.391 20,18.201 L20,18.201 L20,10.469 C20,10.402 19.993,10.336 19.99,10.27 L19.99,10.27 C19.992,10.201 20,10.135 20,10.067 L20,10.067 C20,4.507 15.522,0 10,0 Z" id="Fill-1-Copy" fill="url(#linearGradient-1)"></path>
                <path d="M1.50029158,9.38696315 C1.46229158,9.38696315 1.42429158,9.38296315 1.38629158,9.37396315 C1.11729158,9.31096315 0.950291582,9.04196315 1.01329158,8.77296315 C1.66829158,5.96996315 3.46729158,3.52696315 5.94929158,2.06896315 C6.18729158,1.92896315 6.49429158,2.00896315 6.63429158,2.24696315 C6.77329158,2.48496315 6.69429158,2.79196315 6.45629158,2.93096315 C4.20929158,4.25096315 2.58029158,6.46296315 1.98629158,9.00096315 C1.93329158,9.23096315 1.72729158,9.38696315 1.50029158,9.38696315" id="Fill-4-Copy" fill="#FFFFFF"></path>
                <path d="M14.2903297,15.5581984 C15.4184304,14.7210117 16.1328433,13.5421739 16.1328433,12.2249814 C16.1328433,9.69083304 13.5255415,7.63669047 10.3091568,7.63669047 C7.09429863,7.63669047 4.48699676,9.69083304 4.48699676,12.2249814 C4.48699676,14.7591298 7.09429863,16.8132724 10.3091568,16.8132724 C11.141112,16.8132724 11.9272715,16.6720942 12.6416845,16.4250324 C13.0782701,17.1196291 13.8735888,17.6024585 14.8062946,17.6349295 C15.4382752,17.657518 16.0198806,17.4612803 16.4869968,17.1337469 C15.4672792,17.0349222 14.6261648,16.4066793 14.2903297,15.5581984" id="Path" fill="#FFFFFF"></path>
            </g>
        </g>
    </g>
</svg>